<?xml version="1.0" encoding="UTF-8"?>
<svg id="a" data-name="Layer 1" xmlns="http://www.w3.org/2000/svg" viewBox="0 0 1920 310.08">
  <path d="M350.66,14.9c-46.44-2.86-85.77,10.56-123.26,36.8l26.63,46.76c25.59-17.22,54.68-34.43,87.01-31.06,26.48,2.76,35.65,24.05,36.34,48.02-53.83,6.76-136.16,19.01-155.05,79.31-9.81,31.32.04,70.96,27.08,90.66,41.7,30.37,96.01,15.07,134.25-12.99l2.11,28.26h45.14l.04-181.62c-2.9-53.32-19.56-100.41-80.29-104.14ZM378.43,218.5c-19.54,20.14-68.85,41.16-94.18,23.79-17.6-12.06-17-35.49-1.83-49.4,22.1-20.26,67.22-26.17,96.01-30.38v55.99Z"/>
  <path d="M1821.88,14.18c-135.76-19.05-181.53,185.07-86.8,260.29,51.47,40.87,121.83,30.58,172.55-5.89l-23.6-44.31c-24.12,16.77-50.84,26.69-80.63,22.88-39.35-5.02-58.54-34.92-62.58-72.08h172.14c10.92-69.32-11.69-149.75-91.08-160.89ZM1858.38,122.74h-117.56c3.62-19.78,13.29-38.7,31.17-48.98,16.33-9.4,39.54-11.05,56.98-3.85,20.9,8.64,29.72,31.49,29.41,52.83Z"/>
  <polygon points="1371.88 12.85 1373.46 14.42 1373.46 300.13 1371.88 301.7 1321.5 301.7 1319.93 300.13 1319.93 14.42 1321.5 12.85 1371.88 12.85"/>
  <polygon points="1269.02 248.33 1270.6 249.9 1270.6 300.13 1269.02 301.7 1099.51 301.7 1099.51 12.85 1151.99 12.85 1151.99 248.33 1269.02 248.33"/>
  <polygon points="1582.33 12.85 1634.81 12.85 1634.81 301.7 1584.95 301.7 1475.79 112.27 1474.74 301.7 1423.84 301.7 1423.84 12.85 1473.69 12.85 1582.85 201.25 1582.33 12.85"/>
  <polygon points="639.78 12.85 692.26 12.85 692.26 301.7 642.4 301.7 533.24 112.27 532.19 301.7 481.29 301.7 481.29 12.85 531.14 12.85 640.3 201.25 639.78 12.85"/>
  <path d="M867.07,14.9c-45.15-2.78-87.53,10-122.93,37.74l26.3,45.97c37.71-29.97,121.74-59.36,123.35,16.81-55.15,6.79-139.93,19.89-156.09,83.5-9.61,37.8,7.39,80.03,44.11,95.65,40.87,17.38,84.2,2.23,118.26-22.17l2.11,28.26h45.14l.04-182.67c-2.71-53.11-20.18-99.4-80.29-103.09ZM894.83,218.5c-19.38,18.45-50.73,32.91-78.08,29.72-28.4-3.31-39.24-35.18-18.5-54.86,21.62-20.52,68-26.63,96.58-30.85v55.99Z"/>
  <polygon points="175.33 248.33 176.9 249.9 176.9 300.13 175.33 301.7 5.81 301.7 5.81 12.85 58.29 12.85 58.29 248.33 175.33 248.33"/>
</svg>