<?xml version="1.0" encoding="UTF-8"?>
<svg id="a" data-name="Layer 1" xmlns="http://www.w3.org/2000/svg" viewBox="0 0 587.88 587.83">
  <path d="M587.88,293.94c0,142.68-102.35,261.68-237.43,288.14v-59.11c103.17-25.51,180.16-118.13,180.16-229.03s-76.99-203.57-180.16-229.08V5.75c135.08,26.46,237.43,145.46,237.43,288.19Z" fill="#231f20"/>
  <path d="M430.33,265.68h-164.64V1.42c9.31-.89,18.71-1.42,28.25-1.42s18.93.53,28.24,1.42v207.78h108.15v56.48Z" fill="#231f20"/>
  <path d="M237.44,522.98v59.11C102.35,555.64,0,436.63,0,293.94S102.35,32.19,237.44,5.74v59.11c-103.17,25.49-180.18,118.13-180.18,229.09s77.01,203.54,180.18,229.04Z" fill="#231f20"/>
  <path d="M322.18,322.17v264.23c-9.3.89-18.71,1.43-28.24,1.43s-18.94-.54-28.25-1.43v-207.75h-107.75v-56.48h164.24Z" fill="#231f20"/>
</svg>